<?xml version="1.0" encoding="UTF-8"?>
<svg xmlns="http://www.w3.org/2000/svg" id="Filled" width="512" height="512" viewBox="0 0 512 512"><path d="M383.9975,312s72.4969,136,72,176H440L256,448,72,488H56c-.497-40,72-176,72-176Z" style="fill:#fdc069"/><g><path d="M88,152,72.7171,102.8655A30,30,0,0,1,88.5863,69.5248l53.1846-24.41A199.9993,199.9993,0,0,1,231.2136,24h60.36a30,30,0,0,1,21.2132,8.7868L328,48l21.2336-5.3084a30,30,0,0,1,20.6925,2.2715l53.4876,24.5617a30,30,0,0,1,15.8692,33.3407L424,152v16H88Z" style="fill:#f15a57"/><path d="M442,168H424V156a20,20,0,0,0-20-20H272v32h-8c-19.6117,0-29.54-11.0806-38.3107-28.6216L224,136H108a20,20,0,0,0-20,20v12H70a30,30,0,0,0-30,30v20a30,30,0,0,0,30,30H88v4a60,60,0,0,0,60,60H364a60,60,0,0,0,60-60v-4h18a30,30,0,0,0,30-30V198A30,30,0,0,0,442,168Z" style="fill:#ffd4cf"/></g><path d="M408,354.1407V342a30,30,0,0,0-30-30H134a30,30,0,0,0-30,30v12.1407A15.9939,15.9939,0,0,0,96,368h0a15.994,15.994,0,0,0,8,13.8593V384h48V488H360V384h48v-2.1407A15.994,15.994,0,0,0,416,368h0A15.9939,15.9939,0,0,0,408,354.1407Z" style="fill:#57cee6"/><rect x="152" y="448" width="208" height="40" style="fill:#f15a57"/><path d="M152,384H104v48a40,40,0,0,0,40,40h8Z" style="fill:#ffd4cf"/><path d="M400,384h8a0,0,0,0,1,0,0v88a0,0,0,0,1,0,0H360a0,0,0,0,1,0,0V424A40,40,0,0,1,400,384Z" transform="translate(768 856) rotate(-180)" style="fill:#ffd4cf"/><polygon points="256 344 208 376 256 416 304 376 256 344" style="fill:#fdc069"/><path d="M168,312h32a0,0,0,0,1,0,0v24a16,16,0,0,1-16,16h0a16,16,0,0,1-16-16V312a0,0,0,0,1,0,0Z" style="fill:#feffff"/><path d="M312,312h32a0,0,0,0,1,0,0v24a16,16,0,0,1-16,16h0a16,16,0,0,1-16-16V312A0,0,0,0,1,312,312Z" style="fill:#feffff"/><g><path d="M442,160H432v-4q0-1.2348-.106-2.4434l15.0279-48.3154q.0981-.3164.17-.6406a37.9444,37.9444,0,0,0-20.1011-42.2315c-.0791-.04-.1587-.0781-.2392-.1152l-53.3746-24.51a38.0431,38.0431,0,0,0-26.0844-2.8134l-16.8389,4.21L318.4434,27.13A37.7528,37.7528,0,0,0,291.5737,16h-60.36a206.8136,206.8136,0,0,0-82.3819,17.01l6.337,14.6914A190.9021,190.9021,0,0,1,231.2134,32h60.36A21.854,21.854,0,0,1,307.13,38.4443l15.2134,15.2129a7.9951,7.9951,0,0,0,7.5971,2.1035l21.2325-5.3076a22.0219,22.0219,0,0,1,15.1762,1.6651c.0786.04.1587.0781.2388.1152l53.3574,24.501A21.9679,21.9679,0,0,1,431.5376,100.83l-10.3011,33.1184A27.861,27.861,0,0,0,404,128H272a8,8,0,0,0-8,8v24c-14.0693,0-22.2222-6.332-31.1553-24.1992l-1.6894-3.3789A8,8,0,0,0,224,128H108a27.861,27.861,0,0,0-17.2365,5.9485L80.4624,100.83A21.9673,21.9673,0,0,1,92.0405,76.7422l47.2666-21.458-6.6142-14.5684L85.2793,62.24c-.0908.041-.1812.084-.2705.1289a37.9451,37.9451,0,0,0-20.1011,42.2315q.0718.3237.17.6406L80.106,153.5566Q80.001,154.7644,80,156v4H70a38.0433,38.0433,0,0,0-38,38v20a38.0433,38.0433,0,0,0,38,38H80.1162a68.0691,68.0691,0,0,0,32.9328,54.3115A37.9968,37.9968,0,0,0,96,342v8.1162A24.09,24.09,0,0,0,88,368a23.8422,23.8422,0,0,0,.55,5.0894c-6.7441,14.301-12.7576,27.6743-17.8912,39.7895l14.7324,6.2422C88.59,411.5737,92.138,403.5222,96,395.05V432a47.9584,47.9584,0,0,0,19.2467,38.4119L71.1406,480H64.7363c1.46-8.7305,5.4185-23.0293,14.6983-46.3887l-14.87-5.9062C53.2671,456.1436,47.8491,475.8984,48.0005,488.1A8,8,0,0,0,56,496H72a8.0147,8.0147,0,0,0,1.6992-.1826L144,480.5347V488a8,8,0,0,0,8,8H312V480H160V456H352v24H328v16h32a8,8,0,0,0,8-8v-7.4653l70.3008,15.2827A8.0147,8.0147,0,0,0,440,496h15.9976a8,8,0,0,0,8-7.9C464.23,469.3164,450.59,430.63,423.4488,373.093A23.8355,23.8355,0,0,0,424,368a24.09,24.09,0,0,0-8-17.8838V342a37.9968,37.9968,0,0,0-17.049-31.6885A68.0691,68.0691,0,0,0,431.8838,256H442a38.0433,38.0433,0,0,0,38-38V198A38.0433,38.0433,0,0,0,442,160ZM112,392h32v72a32.0364,32.0364,0,0,1-32-32Zm256,0h32v40a32.0364,32.0364,0,0,1-32,32Zm72.8594,88-44.106-9.5884A47.9573,47.9573,0,0,0,416,432V395.05c21.7982,47.7971,29.1409,72.4038,31.252,84.95ZM378,320a22.0248,22.0248,0,0,1,22,22v12.1406a8,8,0,0,0,3.9941,6.9248,8.0052,8.0052,0,0,1,0,13.8692A7.9986,7.9986,0,0,0,402.5527,376H368v-6.1113l7.1553-14.3106-14.3106-7.1562-8,16A8,8,0,0,0,352,368v72H160V368a8,8,0,0,0-.8447-3.5781l-8-16-14.3106,7.1562L144,369.8887V376H109.4473a7.9986,7.9986,0,0,0-1.4414-1.0654,8.0052,8.0052,0,0,1,0-13.8692A8,8,0,0,0,112,354.1406V342a22.0248,22.0248,0,0,1,22-22h26v16a24,24,0,0,0,48,0V320h96v16a24,24,0,0,0,48,0V320Zm-202,0h16v16a8,8,0,0,1-16,0Zm144,0h16v16a8,8,0,0,1-16,0ZM464,218a22.0248,22.0248,0,0,1-22,22H424a8,8,0,0,0-8,8v4a52.0589,52.0589,0,0,1-52,52H148a52.0589,52.0589,0,0,1-52-52v-4a8,8,0,0,0-8-8H70a22.0248,22.0248,0,0,1-22-22V198a22.0248,22.0248,0,0,1,22-22H88a8,8,0,0,0,8-8V156a12.0134,12.0134,0,0,1,12-12h111.06c8.1514,15.999,19.9776,32,44.94,32h8a8,8,0,0,0,8-8V144H404a12.0134,12.0134,0,0,1,12,12v12a8,8,0,0,0,8,8h18a22.0248,22.0248,0,0,1,22,22Z"/><path d="M256,264a16.0183,16.0183,0,0,1-16-16H224a32,32,0,0,0,64,0H272A16.0183,16.0183,0,0,1,256,264Z"/><path d="M184,176a40.0455,40.0455,0,0,0-40,40h16a24,24,0,0,1,48,0h16A40.0455,40.0455,0,0,0,184,176Z"/><path d="M328,176a40.0455,40.0455,0,0,0-40,40h16a24,24,0,0,1,48,0h16A40.0455,40.0455,0,0,0,328,176Z"/><path d="M308.4375,369.3438l-48-32a8.001,8.001,0,0,0-8.875,0l-48,32a7.9993,7.9993,0,0,0-.6841,12.8017l48,40a7.9994,7.9994,0,0,0,10.2432,0l48-40a7.9993,7.9993,0,0,0-.6841-12.8017ZM256,405.5859l-34.6475-28.873L256,353.6152l34.6475,23.0977Z"/></g></svg>
