<svg height="512pt" viewBox="-78 0 512 512" width="512pt" xmlns="http://www.w3.org/2000/svg"><path d="m356.625 377.601562h-356.625l70.777344-243.160156h215.070312zm0 0" fill="#d0fdfa"/><path d="m265.09375 250.511719v210.597656c0 28.0625-22.828125 50.890625-50.902344 50.890625-13.980468 0-26.671875-5.675781-35.878906-14.84375-9.207031 9.167969-21.898438 14.84375-35.878906 14.84375-28.070313 0-50.898438-22.828125-50.898438-50.890625v-210.597656zm0 0" fill="#2f5897"/><path d="m356.625 377.601562h-178.3125v-243.160156h107.535156zm0 0" fill="#b7dff7"/><path d="m265.09375 250.511719v210.597656c0 28.0625-22.828125 50.890625-50.902344 50.890625-13.980468 0-26.671875-5.675781-35.878906-14.84375v-246.644531zm0 0" fill="#183158"/><path d="m319.546875 195.90625-53.445313 68.304688h-174.828124l-54.171876-68.273438c-12.53125-15.691406-10.171874-38.980469 5.28125-51.871094l37.679688-31.4375c12.710938-10.597656 28.824219-16.441406 45.378906-16.441406h105.753906c16.554688 0 32.65625 5.84375 45.367188 16.441406l37.679688 31.4375c15.441406 12.871094 17.8125 36.117188 5.304687 51.839844zm0 0" fill="#25d8f7"/><path d="m319.546875 195.90625-53.445313 68.304688h-87.789062v-168.023438h52.882812c16.554688 0 32.65625 5.84375 45.367188 16.441406l37.679688 31.4375c15.441406 12.871094 17.8125 36.117188 5.304687 51.839844zm0 0" fill="#00bff0"/><path d="m240.867188 62.554688c0 34.492187-28.0625 62.546874-62.554688 62.546874s-62.554688-28.054687-62.554688-62.546874c0-34.488282 28.0625-62.554688 62.554688-62.554688s62.554688 28.0625 62.554688 62.554688zm0 0" fill="#ffdaa8"/><path d="m178.3125 125.101562v-125.101562c34.492188 0 62.554688 28.0625 62.554688 62.554688 0 34.492187-28.0625 62.546874-62.554688 62.546874zm0 0" fill="#ffc372"/><path d="m91.535156 161.128906h27.230469v103.082032h-27.230469zm0 0" fill="#00bff0"/><path d="m237.859375 160.855469h27.234375v103.355469h-27.234375zm0 0" fill="#0099e3"/></svg>