<svg id="Layer_1" enable-background="new 0 0 512 512" height="512" viewBox="0 0 512 512" width="512" xmlns="http://www.w3.org/2000/svg">
    <g>
        <path d="m216.8 117.6c-2 0-3.8-1.2-4.6-3.1l-22.5-53.9c-48.9 1.6-92.4 31.5-111.4 76.5l-23.5 55.3 59 16v-34.4c0-2.8 2.2-5 5-5s5 2.2 5 5v306.5l101 4.2 26.3-20v-375.3l-30.9 26.9c-1 .9-2.2 1.3-3.4 1.3zm-58.5 85.4c0 2.8-2.2 5-5 5s-5-2.2-5-5v-58.7c0-2.8 2.2-5 5-5s5 2.2 5 5zm0-76c0 2.8-2.2 5-5 5s-5-2.2-5-5v-6.6c0-2.8 2.2-5 5-5s5 2.2 5 5zm68.4 19h12.8c2.8 0 5 2.2 5 5s-2.2 5-5 5h-12.8c-2.8 0-5-2.2-5-5s2.2-5 5-5zm0 56.1h12.8c2.8 0 5 2.2 5 5s-2.2 5-5 5h-12.8c-2.8 0-5-2.2-5-5s2.2-5 5-5zm0 56.2h12.8c2.8 0 5 2.2 5 5s-2.2 5-5 5h-12.8c-2.8 0-5-2.2-5-5s2.2-5 5-5zm0 56.1h12.8c2.8 0 5 2.2 5 5s-2.2 5-5 5h-12.8c-2.8 0-5-2.2-5-5s2.2-5 5-5zm0 56.2h12.8c2.8 0 5 2.2 5 5s-2.2 5-5 5h-12.8c-2.8 0-5-2.2-5-5s2.2-5 5-5zm0 56.1h12.8c2.8 0 5 2.2 5 5s-2.2 5-5 5h-12.8c-2.8 0-5-2.2-5-5s2.2-5 5-5z" />
        <path d="m42.7 220.7 71 19.2v-21l-62.9-17.1z" />
        <path d="m247.6 79.1-53.2-33 24.3 58.2z" />
        <path d="m293.2 104.3 24.4-58.2-53.2 33z" />
        <path d="m296.4 240.3c0 4.5 2.4 8.7 6.2 11.1l22.6 13.9 22.6-13.9c3.9-2.4 6.2-6.6 6.2-11.1v-40.7h-57.6z" />
        <path d="m195.9 35.2 60.1 37.4 60-37.3c-39.3-10.7-80.8-10.7-120.1-.1z" />
        <path d="m461.2 201.8-62.9 17.3v21l71-19.4z" />
        <path d="m457.3 192.5-23.5-55.4c-19.1-45-62.6-74.9-111.4-76.5l-22.5 53.9c-1.1 2.5-4 3.8-6.5 2.7-.5-.2-1-.5-1.4-.8l-31-27v375.4l25.3 20 102-4.2v-306.5c0-2.8 2.2-5 5-5s5 2.2 5 5v34.6zm-93.3 47.8c0 8-4.2 15.4-11 19.7l-25.2 15.5c-1.6 1-3.6 1-5.2 0l-25.2-15.5c-6.8-4.2-11-11.6-11-19.7v-45.7c0-2.8 2.2-5 5-5h67.6c2.8 0 5 2.2 5 5z" />
    </g>
</svg>